<svg xmlns="http://www.w3.org/2000/svg" viewBox="0 0 64 64" width="64" height="64">
<defs><linearGradient id="ig" x1="0" y1="0" x2="1" y2="1"><stop offset="0" stop-color="#3b82f6"/><stop offset="1" stop-color="#1d4ed8"/></linearGradient></defs>
<rect width="64" height="64" rx="14" fill="url(#ig)"/>
<rect x="9" y="12" width="20" height="40" rx="3" fill="#ffffff"/>
<rect x="35" y="12" width="20" height="40" rx="3" fill="#ffffff"/>
<rect x="13" y="18" width="12" height="3.5" rx="1.75" fill="#cbd5e1"/>
<rect x="13" y="25" width="9" height="3.5" rx="1.75" fill="#ef4444"/>
<rect x="13" y="32" width="12" height="3.5" rx="1.75" fill="#cbd5e1"/>
<rect x="13" y="39" width="11" height="3.5" rx="1.75" fill="#eab308"/>
<rect x="13" y="46" width="8" height="3.5" rx="1.75" fill="#cbd5e1"/>
<rect x="39" y="18" width="12" height="3.5" rx="1.75" fill="#cbd5e1"/>
<rect x="39" y="25" width="10" height="3.5" rx="1.75" fill="#22c55e"/>
<rect x="39" y="32" width="12" height="3.5" rx="1.75" fill="#cbd5e1"/>
<rect x="39" y="39" width="9" height="3.5" rx="1.75" fill="#eab308"/>
<rect x="39" y="46" width="8" height="3.5" rx="1.75" fill="#cbd5e1"/>
</svg>
